<?xml version="1.0" standalone="no"?>
<!DOCTYPE svg PUBLIC "-//W3C//DTD SVG 20010904//EN"
 "http://www.w3.org/TR/2001/REC-SVG-20010904/DTD/svg10.dtd">
<svg version="1.0" xmlns="http://www.w3.org/2000/svg"
 width="160.000000pt" height="188.000000pt" viewBox="0 0 160.000000 188.000000"
 preserveAspectRatio="xMidYMid meet">

<g transform="translate(0.000000,188.000000) scale(0.100000,-0.100000)"
fill="#000000" stroke="none">
<path d="M733 1825 c-29 -19 -55 -35 -58 -35 -5 0 -252 -144 -317 -186 -21
-13 -40 -24 -43 -24 -4 0 -26 -14 -51 -30 -40 -28 -44 -35 -44 -71 0 -22 5
-49 10 -60 6 -11 7 -19 1 -19 -5 0 -17 20 -28 45 -10 25 -23 45 -29 45 -6 0
-48 -21 -93 -46 -74 -42 -80 -48 -64 -60 17 -13 17 -14 1 -8 -17 6 -18 -13
-18 -310 l0 -316 26 10 c18 7 23 7 18 -1 -3 -6 -1 -15 6 -19 7 -4 12 -27 12
-51 -1 -31 5 -50 20 -66 l20 -22 -21 6 c-11 3 -21 9 -21 13 0 4 -14 24 -30 45
l-31 39 3 -117 c2 -65 6 -117 11 -117 4 0 16 -9 28 -21 11 -11 27 -18 34 -15
7 2 16 -2 19 -11 4 -9 13 -13 22 -9 8 3 12 2 9 -4 -3 -5 22 -23 57 -40 l63
-31 22 28 c15 18 23 42 23 65 0 32 -3 37 -27 41 l-28 4 26 2 c16 0 40 16 64
42 36 39 37 42 19 53 -10 6 -29 11 -41 11 -18 1 -23 -5 -24 -25 -1 -22 -2 -21
-10 9 -9 30 -13 33 -38 28 -26 -5 -28 -4 -29 29 -1 20 3 32 8 29 6 -3 10 0 10
7 1 7 9 23 20 36 l20 24 24 -29 c23 -25 25 -26 26 -8 0 15 2 17 9 6 7 -11 27
-4 102 36 l94 50 3 143 c2 127 1 144 -15 155 -17 13 -17 14 2 20 36 11 145 69
145 77 0 4 6 8 13 8 7 0 40 16 72 35 l58 36 86 -50 c47 -27 110 -61 139 -75
l52 -26 0 -165 0 -164 -82 -45 c-46 -25 -76 -46 -67 -46 9 0 22 -15 30 -32 15
-38 28 -49 49 -43 8 2 22 0 30 -5 11 -7 11 -10 2 -10 -15 0 -1 -31 28 -63 17
-18 18 -18 29 0 10 17 10 17 11 1 0 -21 4 -22 31 -7 12 6 18 17 15 25 -4 11
-2 13 11 6 12 -7 33 0 79 25 50 27 67 32 81 24 16 -9 16 -10 -5 -11 -19 0 -22
-4 -17 -22 7 -22 6 -22 -7 -4 -13 16 -18 17 -39 5 l-24 -13 25 -7 c14 -4 37
-7 53 -8 26 -1 34 -10 20 -24 -3 -4 -11 -3 -17 2 -6 5 -27 12 -46 15 l-35 7
52 -50 c40 -40 49 -54 40 -64 -7 -6 -18 -24 -26 -40 -13 -25 -13 -29 5 -41 14
-11 21 -11 26 -3 6 9 8 8 8 -1 0 -14 23 -3 127 65 28 18 56 33 62 33 6 0 11 5
11 11 0 5 4 8 8 5 5 -3 18 1 29 9 20 14 20 24 22 468 1 421 0 455 -17 469 -9
8 -62 41 -117 73 -55 32 -129 76 -164 97 -80 47 -95 48 -89 8 7 -46 -10 -35
-23 15 -6 24 -16 48 -23 53 -19 16 -357 212 -365 212 -3 0 -30 -16 -58 -35z
m87 0 c0 -17 -27 -38 -40 -30 -14 9 -13 42 3 48 18 6 37 -3 37 -18z m67 -171
c-3 -3 -12 -4 -19 -1 -8 3 -5 6 6 6 11 1 17 -2 13 -5z m-242 -14 c-3 -5 0 -10
7 -10 7 -1 2 -7 -12 -15 -14 -7 -26 -12 -28 -10 -7 6 19 45 29 45 6 0 7 -4 4
-10z m-162 -82 c7 -25 -8 -58 -26 -58 -29 0 -49 25 -42 53 9 35 59 39 68 5z
m317 -6 c0 -5 -7 -9 -15 -9 -8 0 -12 4 -9 9 3 4 9 8 15 8 5 0 9 -4 9 -8z m105
-58 c17 -14 21 -21 10 -16 -30 16 -61 41 -50 41 6 0 24 -11 40 -25z m-240 -20
c-26 -20 -55 -36 -55 -30 0 5 63 46 70 46 3 -1 -4 -8 -15 -16z m132 -6 c-3 -8
-6 -5 -6 6 -1 11 2 17 5 13 3 -3 4 -12 1 -19z m217 -47 c-2 -3 -12 3 -22 13
-16 17 -16 18 5 5 12 -7 20 -15 17 -18z m255 -8 c-15 -18 -34 -1 -25 22 5 14
9 15 21 5 12 -10 13 -16 4 -27z m258 1 c9 -24 -12 -39 -38 -28 -20 9 -21 11
-5 27 22 21 35 22 43 1z m-977 -9 c-7 -8 -18 -15 -24 -15 -6 0 -2 7 8 15 25
19 32 19 16 0z m190 -3 c0 -10 -3 -22 -7 -25 -10 -11 -32 13 -26 29 8 20 33
17 33 -4z m57 -34 c-2 -13 -4 -5 -4 17 -1 22 1 32 4 23 2 -10 2 -28 0 -40z
m273 26 c0 -2 -9 0 -20 6 -11 6 -20 13 -20 16 0 2 9 0 20 -6 11 -6 20 -13 20
-16z m-560 -9 c0 -2 -13 -11 -30 -20 -38 -19 -40 -11 -2 9 31 17 32 18 32 11z
m1069 2 c-16 -13 -79 -48 -79 -44 0 7 63 47 74 47 5 0 7 -1 5 -3z m-409 -53
c0 -2 -9 0 -20 6 -11 6 -20 13 -20 16 0 2 9 0 20 -6 11 -6 20 -13 20 -16z
m-750 -4 c-24 -19 -40 -25 -40 -15 0 5 51 34 60 34 3 0 -6 -8 -20 -19z m-287
-3 c3 3 21 -9 39 -28 l33 -33 -50 29 c-51 29 -88 57 -49 37 12 -6 24 -9 27 -5z
m1352 4 c-3 -5 -40 -30 -82 -56 -66 -39 -79 -44 -91 -32 -12 13 -11 14 10 11
15 -3 46 11 93 40 75 49 79 51 70 37z m-245 -37 c0 -2 -9 0 -20 6 -11 6 -20
13 -20 16 0 2 9 0 20 -6 11 -6 20 -13 20 -16z m50 -30 c0 -2 -9 0 -20 6 -11 6
-20 13 -20 16 0 2 9 0 20 -6 11 -6 20 -13 20 -16z m-1016 -10 c20 5 20 4 2 -9
-16 -12 -22 -12 -42 2 -30 19 -32 28 -3 12 12 -6 31 -8 43 -5z m1063 -141 c-2
-21 -4 -4 -4 37 0 41 2 58 4 38 2 -21 2 -55 0 -75z m-944 60 c-5 -2 -8 -18 -6
-36 2 -29 2 -29 -5 -7 -5 14 -12 38 -16 55 l-7 29 21 -19 c12 -11 17 -21 13
-22z m-136 -25 c-3 -7 -5 -2 -5 12 0 14 2 19 5 13 2 -7 2 -19 0 -25z m1173
-12 c0 -27 -24 -51 -40 -41 -6 4 -15 17 -19 29 -10 24 2 36 37 36 17 0 22 -6
22 -24z m-140 -46 c0 -5 -4 -10 -10 -10 -5 0 -10 5 -10 10 0 6 5 10 10 10 6 0
10 -4 10 -10z m-1214 -41 c9 -16 -18 -30 -33 -17 -7 6 -10 14 -7 19 7 13 31
11 40 -2z m1261 -51 c-2 -13 -4 -3 -4 22 0 25 2 35 4 23 2 -13 2 -33 0 -45z
m193 32 c0 -5 -2 -10 -4 -10 -3 0 -8 5 -11 10 -3 6 -1 10 4 10 6 0 11 -4 11
-10z m-11 -72 c32 -35 33 -36 12 -47 -17 -10 -20 -9 -14 4 3 9 -4 29 -16 45
-11 16 -21 32 -21 36 0 4 1 5 3 3 1 -2 17 -21 36 -41z m-1262 -10 c-3 -8 -6
-5 -6 6 -1 11 2 17 5 13 3 -3 4 -12 1 -19z m1075 -330 c-6 -6 -21 1 -37 16
-15 14 -37 28 -49 32 -11 3 -28 12 -36 19 -8 7 -39 25 -68 40 -29 15 -55 32
-58 37 -8 13 66 -25 152 -78 39 -24 76 -44 82 -44 9 0 12 39 12 143 -1 78 0
153 2 167 1 14 4 -53 5 -149 2 -96 -1 -179 -5 -183z m-142 221 c0 -5 -6 -9
-13 -9 -7 0 -13 9 -13 19 0 15 3 17 13 9 7 -6 13 -14 13 -19z m-929 -59 c-9
-45 -9 -45 -6 15 3 68 6 79 11 50 3 -11 0 -40 -5 -65z m-61 50 c0 -5 -5 -10
-11 -10 -5 0 -7 5 -4 10 3 6 8 10 11 10 2 0 4 -4 4 -10z m-100 -20 c0 -5 -5
-10 -11 -10 -5 0 -7 5 -4 10 3 6 8 10 11 10 2 0 4 -4 4 -10z m1405 -42 c0 -29
4 -42 12 -41 10 2 10 -3 1 -22 -9 -21 -8 -32 5 -60 9 -19 24 -35 32 -35 22 0
10 -16 -16 -23 -16 -4 -19 -3 -11 5 8 8 -1 30 -30 77 -23 36 -47 73 -55 82
-19 23 -16 34 15 46 44 17 47 15 47 -29z m-237 -24 l0 -47 -20 21 c-20 20 -20
20 -2 46 11 14 19 26 20 26 0 0 1 -21 2 -46z m-1138 -63 c0 -6 -4 -13 -10 -16
-5 -3 -10 1 -10 9 0 9 5 16 10 16 6 0 10 -4 10 -9z m967 -23 c-3 -8 -6 -5 -6
6 -1 11 2 17 5 13 3 -3 4 -12 1 -19z m334 -20 c17 -19 20 -20 37 -5 16 14 17
13 19 -15 1 -18 7 -34 13 -38 5 -3 -11 -16 -36 -29 -26 -12 -49 -20 -52 -17
-2 3 8 10 23 16 l28 11 -23 16 c-21 15 -24 15 -38 -3 -13 -17 -14 -16 -7 16 4
19 7 43 7 53 -1 23 7 22 29 -5z m-306 -38 c3 -5 1 -10 -4 -10 -6 0 -11 5 -11
10 0 6 2 10 4 10 3 0 8 -4 11 -10z m-28 -6 c-3 -3 -12 -4 -19 -1 -8 3 -5 6 6
6 11 1 17 -2 13 -5z m-957 -14 c0 -5 -2 -10 -4 -10 -3 0 -8 5 -11 10 -3 6 -1
10 4 10 6 0 11 -4 11 -10z m-86 -55 c3 -8 1 -15 -4 -15 -6 0 -10 7 -10 15 0 8
2 15 4 15 2 0 6 -7 10 -15z m230 -10 c-4 -8 -11 -15 -16 -15 -6 0 -5 6 2 15 7
8 14 15 16 15 2 0 1 -7 -2 -15z m1116 11 c0 -3 -4 -8 -10 -11 -5 -3 -10 -1
-10 4 0 6 5 11 10 11 6 0 10 -2 10 -4z m10 -32 c0 -8 -5 -12 -10 -9 -6 4 -8
11 -5 16 9 14 15 11 15 -7z m-1280 -9 c0 -8 -2 -15 -4 -15 -2 0 -6 7 -10 15
-3 8 -1 15 4 15 6 0 10 -7 10 -15z m70 -25 c0 -5 -4 -10 -10 -10 -5 0 -10 5
-10 10 0 6 5 10 10 10 6 0 10 -4 10 -10z m1175 -38 c-3 -3 -11 0 -18 7 -9 10
-8 11 6 5 10 -3 15 -9 12 -12z"/>
<path d="M1410 615 c0 -8 7 -15 15 -15 9 0 12 6 9 15 -4 8 -10 15 -15 15 -5 0
-9 -7 -9 -15z"/>
<path d="M499 750 c-32 -9 -159 -79 -177 -97 -11 -11 -10 -14 5 -20 16 -6 15
-8 -5 -13 -20 -4 -15 -9 39 -38 34 -18 66 -29 70 -25 4 4 17 35 28 67 12 33
26 65 32 70 9 8 10 6 5 -9 -9 -24 -9 -21 -7 -68 1 -23 5 -36 11 -32 6 3 10 2
10 -4 0 -6 -16 -19 -36 -29 l-35 -18 49 -27 c60 -33 60 -33 65 -4 4 19 4 18 6
-5 1 -19 12 -35 38 -53 46 -31 52 -31 46 -2 -4 21 -4 21 10 -2 l15 -24 7 22
c4 12 9 21 11 18 3 -2 0 -16 -5 -30 -8 -20 -7 -27 7 -32 21 -8 75 54 61 71 -5
7 -3 11 6 11 8 0 27 -20 41 -44 14 -24 29 -41 34 -38 5 3 13 -2 18 -11 9 -15
12 -15 41 2 17 10 31 22 31 26 0 4 8 8 18 8 9 0 35 11 56 24 38 23 39 24 16
31 -19 6 -29 2 -48 -21 -18 -22 -21 -24 -12 -6 13 27 4 48 -15 32 -7 -6 -11
-21 -9 -33 l5 -22 -10 23 c-6 12 -16 22 -23 22 -9 0 -9 3 2 10 13 9 13 11 0
20 -8 6 -23 8 -32 6 -14 -3 -15 0 -8 20 5 13 7 31 3 41 -5 12 -2 15 9 10 14
-5 28 10 28 28 0 7 -32 35 -40 35 -4 0 -15 -17 -24 -37 -10 -21 -24 -49 -32
-63 l-16 -25 7 25 c4 14 7 35 7 47 0 13 5 20 10 17 6 -4 14 0 19 7 14 22 10
31 -8 20 -40 -24 -56 -42 -63 -73 l-8 -33 -1 31 c-1 17 6 37 14 44 13 11 12
15 -8 29 -33 26 -215 131 -224 130 -4 0 -20 -4 -34 -9z m68 -142 c15 -3 14 -5
-2 -22 -12 -12 -21 -14 -23 -7 -2 6 -9 8 -14 5 -7 -5 -8 -2 -2 7 9 14 10 17
14 47 2 13 4 12 7 -5 2 -12 12 -23 20 -25z m300 0 c-3 -8 -6 -5 -6 6 -1 11 2
17 5 13 3 -3 4 -12 1 -19z m-147 -115 c12 -9 10 -10 -12 -6 -16 3 -25 10 -22
17 3 7 -2 19 -11 26 -8 7 -15 17 -15 23 0 5 10 -3 22 -19 13 -16 29 -34 38
-41z m-80 -7 c0 -15 -3 -17 -9 -7 -6 10 -13 11 -29 2 -11 -6 -24 -11 -29 -11
-4 1 5 8 20 16 15 8 25 19 22 24 -3 6 1 7 9 4 9 -3 16 -16 16 -28z m221 -38
c-3 -21 -6 -26 -9 -15 -3 17 3 47 11 47 2 0 1 -15 -2 -32z"/>
<path d="M330 515 l-34 -34 26 -10 c14 -5 29 -15 33 -21 6 -9 2 -9 -13 -1 -31
17 -42 13 -42 -13 0 -32 13 -39 51 -31 20 5 29 12 25 20 -3 9 0 12 8 9 15 -6
109 29 113 43 4 10 -91 66 -117 69 -8 1 -31 -13 -50 -31z m94 -42 c4 -13 3
-23 -2 -23 -6 0 -13 12 -16 28 -4 15 -9 36 -12 47 -6 26 20 -20 30 -52z"/>
<path d="M880 535 c0 -8 4 -15 10 -15 5 0 7 7 4 15 -4 8 -8 15 -10 15 -2 0 -4
-7 -4 -15z"/>
<path d="M1040 513 c0 -12 5 -25 11 -28 19 -12 22 3 5 27 l-16 22 0 -21z"/>
<path d="M1132 462 l-61 -68 50 -13 c29 -8 54 -9 59 -5 7 7 19 154 14 154 -1
0 -29 -31 -62 -68z"/>
<path d="M1070 471 c-47 -26 -84 -52 -82 -59 1 -7 -9 -12 -23 -12 -26 0 -75
-19 -75 -29 0 -3 15 -16 33 -29 l32 -22 6 37 c5 30 6 32 8 11 1 -25 5 -28 36
-28 27 0 40 -7 62 -35 23 -29 36 -35 80 -41 36 -4 58 -2 68 6 20 17 11 28 -20
23 -13 -3 -22 -9 -19 -14 11 -19 -15 -8 -51 21 -21 17 -42 30 -48 30 -6 0 -8
3 -4 6 3 4 22 -4 42 -16 20 -12 37 -21 39 -19 2 2 8 14 15 26 10 19 8 22 -22
31 -17 5 -58 17 -89 27 -65 19 -74 26 -25 19 29 -3 36 1 80 56 26 33 46 59 45
59 -2 -1 -41 -22 -88 -48z"/>
<path d="M1010 501 c0 -5 5 -13 10 -16 6 -3 10 -2 10 4 0 5 -4 13 -10 16 -5 3
-10 2 -10 -4z"/>
<path d="M488 451 c-6 -10 -17 -17 -23 -15 -6 3 -35 -7 -65 -22 -38 -19 -49
-29 -39 -35 11 -7 11 -9 1 -9 -7 0 -10 -4 -7 -10 3 -5 1 -10 -6 -10 -8 0 -9
-12 -4 -37 9 -51 12 -54 41 -43 14 6 31 7 37 3 7 -5 0 -10 -18 -13 -28 -5 -26
-7 44 -48 41 -23 76 -40 79 -37 8 8 -51 87 -73 95 -11 5 -14 9 -7 9 9 1 10 6
2 20 -10 19 -9 19 17 6 14 -8 31 -12 37 -9 6 3 3 -1 -6 -8 -16 -13 -14 -19 23
-74 l41 -59 -6 38 c-3 20 -8 53 -11 72 -3 19 -10 35 -15 35 -6 0 -5 11 1 26 5
15 7 29 4 32 -3 3 -5 0 -5 -6 0 -7 -5 -12 -11 -12 -7 0 -5 10 5 25 14 22 15
31 5 65 -13 44 -23 49 -41 21z m-57 -108 c13 -16 12 -17 -3 -4 -17 13 -22 21
-14 21 2 0 10 -8 17 -17z"/>
<path d="M1270 444 c0 -16 5 -24 13 -22 18 7 20 35 2 41 -11 5 -15 0 -15 -19z"/>
<path d="M547 449 c7 -7 15 -10 18 -7 3 3 -2 9 -12 12 -14 6 -15 5 -6 -5z"/>
<path d="M741 419 c-13 -17 -21 -32 -19 -34 1 -2 27 -7 55 -13 l52 -9 -17 29
c-9 16 -24 36 -33 44 -13 12 -18 10 -38 -17z"/>
<path d="M546 415 c7 -18 15 -19 38 -2 15 11 14 13 -13 15 -24 2 -29 -1 -25
-13z"/>
<path d="M578 397 c-22 -8 -28 -18 -28 -40 0 -19 4 -27 13 -23 6 3 20 9 30 12
11 4 17 17 17 35 0 16 -1 29 -2 28 -2 -1 -15 -6 -30 -12z"/>
<path d="M627 403 c-4 -3 -7 -17 -7 -29 0 -14 -9 -29 -22 -36 -22 -12 -21 -13
17 -19 l40 -6 -40 -2 -40 -2 28 -24 c15 -14 33 -25 38 -25 5 0 19 19 30 43
l19 42 -5 -35 c-3 -18 -10 -37 -16 -40 -21 -13 -39 -62 -30 -78 7 -13 11 -8
16 21 4 20 11 40 16 43 5 3 6 -2 3 -10 -5 -12 0 -16 17 -16 l24 0 -24 -13
c-13 -6 -28 -23 -32 -37 -8 -22 -7 -23 4 -8 13 16 15 16 36 -3 21 -20 21 -22
5 -40 -15 -17 -19 -18 -34 -4 -17 16 -42 20 -53 8 -9 -8 61 -56 72 -49 5 3 11
0 14 -8 3 -7 21 -22 41 -34 l36 -21 0 50 c0 30 -4 48 -10 44 -5 -3 -7 0 -4 9
4 9 -2 16 -18 19 -21 4 -20 4 5 6 22 1 27 6 27 26 0 14 -6 25 -12 25 -9 0 -10
3 -2 8 6 4 11 31 10 61 -1 51 -3 56 -35 75 -34 20 -35 20 -27 0 4 -13 -2 -9
-21 11 -37 41 -58 56 -66 48z m123 -123 c6 -11 8 -20 6 -20 -3 0 -10 9 -16 20
-6 11 -8 20 -6 20 3 0 10 -9 16 -20z m-3 -66 c-3 -3 -12 -4 -19 -1 -8 3 -5 6
6 6 11 1 17 -2 13 -5z m3 -114 c0 -5 -10 -15 -22 -21 -23 -12 -23 -12 -4 10
21 23 26 26 26 11z"/>
<path d="M1262 390 c-7 -11 -8 -20 -2 -20 5 0 14 9 20 20 6 11 7 20 3 20 -5 0
-14 -9 -21 -20z"/>
<path d="M267 349 c-9 -6 -15 -15 -12 -20 9 -13 85 -51 85 -42 -1 28 -15 53
-30 53 -10 0 -20 4 -22 9 -2 6 -10 6 -21 0z"/>
<path d="M1212 337 c-28 -30 -28 -37 1 -29 21 5 46 29 47 45 0 15 -27 6 -48
-16z"/>
<path d="M886 336 c3 -8 12 -12 21 -9 12 5 12 7 1 14 -20 13 -28 11 -22 -5z"/>
<path d="M821 331 c-8 -6 -9 -11 -3 -15 6 -3 14 -1 17 5 9 14 2 20 -14 10z"/>
<path d="M856 325 c-3 -8 -1 -15 4 -15 13 0 22 18 11 24 -5 3 -11 -1 -15 -9z"/>
<path d="M1260 325 c0 -17 2 -18 24 -9 18 7 12 24 -10 24 -8 0 -14 -7 -14 -15z"/>
<path d="M901 311 c-10 -7 -11 -23 -5 -72 l8 -64 8 55 c11 69 8 92 -11 81z"/>
<path d="M924 230 l-10 -90 34 34 34 34 -22 30 c-14 19 -21 39 -17 51 3 12 2
23 -3 26 -4 2 -11 -36 -16 -85z"/>
<path d="M841 286 c-19 -22 -10 -98 16 -140 37 -58 48 -36 32 68 -13 85 -24
101 -48 72z"/>
<path d="M1240 290 c0 -5 7 -7 15 -4 8 4 15 8 15 10 0 2 -7 4 -15 4 -8 0 -15
-4 -15 -10z"/>
<path d="M1064 246 c-6 -17 11 -46 28 -46 5 0 7 3 5 8 -3 4 5 8 18 8 13 1 34
9 46 18 l23 16 -26 0 c-14 0 -39 3 -57 6 -23 5 -32 2 -37 -10z"/>
<path d="M990 195 c-4 -11 -10 -33 -14 -49 l-7 -29 43 26 c24 14 42 31 41 36
-2 6 4 8 13 4 14 -5 14 -3 3 16 -18 28 -68 25 -79 -4z"/>
<path d="M826 115 c4 -43 2 -56 -5 -45 -7 9 -11 10 -11 3 0 -23 17 -22 40 2
l23 25 -20 23 c-11 12 -23 29 -26 37 -3 8 -3 -12 -1 -45z"/>
<path d="M937 140 c-38 -42 -34 -69 5 -37 14 10 34 67 25 67 -2 0 -16 -13 -30
-30z"/>
<path d="M860 65 c-11 -13 -10 -14 4 -9 9 3 16 10 16 15 0 13 -6 11 -20 -6z"/>
</g>
</svg>
