<svg width="100%" height="100%" id="svg" viewBox="0 0 1440 500" xmlns="http://www.w3.org/2000/svg" class="transition duration-300 ease-in-out delay-150"><defs><linearGradient id="gradient" x1="0%" y1="50%" x2="100%" y2="50%"><stop offset="5%" stop-color="#9f7aea"></stop><stop offset="95%" stop-color="#ed64a6"></stop></linearGradient></defs><path d="M 0,500 C 0,500 0,166 0,166 C 81.90430622009572,149.17703349282297 163.80861244019144,132.35406698564594 273,137 C 382.19138755980856,141.64593301435406 518.66985645933,167.76076555023923 603,182 C 687.33014354067,196.23923444976077 719.511961722488,198.60287081339715 820,181 C 920.488038277512,163.39712918660285 1089.2822966507176,125.82775119617226 1204,120 C 1318.7177033492824,114.17224880382774 1379.3588516746413,140.08612440191388 1440,166 C 1440,166 1440,500 1440,500 Z" stroke="none" stroke-width="0" fill="url(#gradient)" fill-opacity="0.53" class="transition-all duration-300 ease-in-out delay-150 path-0" data-darkreader-inline-stroke="" style="--darkreader-inline-stroke:none;"></path><defs><linearGradient id="gradient" x1="0%" y1="50%" x2="100%" y2="50%"><stop offset="5%" stop-color="#9f7aea"></stop><stop offset="95%" stop-color="#ed64a6"></stop></linearGradient></defs><path d="M 0,500 C 0,500 0,333 0,333 C 103.42583732057417,361.066985645933 206.85167464114835,389.13397129186603 301,390 C 395.14832535885165,390.86602870813397 480.01913875598086,364.53110047846894 564,345 C 647.9808612440191,325.46889952153106 731.0717703349283,312.7416267942584 836,313 C 940.9282296650717,313.2583732057416 1067.6937799043062,326.5023923444976 1172,332 C 1276.3062200956938,337.4976076555024 1358.153110047847,335.2488038277512 1440,333 C 1440,333 1440,500 1440,500 Z" stroke="none" stroke-width="0" fill="url(#gradient)" fill-opacity="1" class="transition-all duration-300 ease-in-out delay-150 path-1"></path></svg>